<mxfile host="65bd71144e" modified="2021-01-20T23:01:20.699Z" agent="5.0 (Windows NT 10.0; Win64; x64) AppleWebKit/537.36 (KHTML, like Gecko) Code/1.52.1 Chrome/83.0.4103.122 Electron/9.3.5 Safari/537.36" etag="wueHnlbx9E8WC_tem4ys" version="13.10.0" type="embed">
    <diagram id="-HQH13MohT4NPJMic_bs" name="Page-1">
        <mxGraphModel dx="487" dy="556" grid="1" gridSize="10" guides="1" tooltips="1" connect="1" arrows="1" fold="1" page="1" pageScale="1" pageWidth="827" pageHeight="1169" math="0" shadow="0">
            <root>
                <mxCell id="0"/>
                <mxCell id="1" parent="0"/>
                <mxCell id="2" value="" style="rounded=0;whiteSpace=wrap;html=1;strokeColor=#080808;fillColor=#050505;" parent="1" vertex="1">
                    <mxGeometry width="820" height="4670" as="geometry"/>
                </mxCell>
                <mxCell id="3" value="&lt;font style=&quot;font-size: 18px&quot;&gt;Questionario Sobre Vikings&lt;/font&gt;" style="text;html=1;strokeColor=none;fillColor=none;align=center;verticalAlign=middle;whiteSpace=wrap;rounded=0;" parent="1" vertex="1">
                    <mxGeometry x="294" y="20" width="239" height="50" as="geometry"/>
                </mxCell>
                <mxCell id="4" value="&lt;br&gt;&lt;br&gt;&lt;br&gt;&lt;br&gt;&lt;br&gt;Card" style="rounded=1;whiteSpace=wrap;html=1;fillColor=#2A0202;" parent="1" vertex="1">
                    <mxGeometry x="259" y="110" width="310" height="330" as="geometry"/>
                </mxCell>
                <mxCell id="5" value="Imagem" style="rounded=0;whiteSpace=wrap;html=1;" parent="1" vertex="1">
                    <mxGeometry x="300" y="150" width="230" height="130" as="geometry"/>
                </mxCell>
                <mxCell id="7" value="" style="ellipse;whiteSpace=wrap;html=1;" parent="1" vertex="1">
                    <mxGeometry x="280" y="340" width="11" height="10" as="geometry"/>
                </mxCell>
                <mxCell id="8" value="Alternativa 1" style="text;html=1;strokeColor=none;fillColor=none;align=center;verticalAlign=middle;whiteSpace=wrap;rounded=0;" parent="1" vertex="1">
                    <mxGeometry x="291" y="335" width="69" height="20" as="geometry"/>
                </mxCell>
                <mxCell id="10" value="" style="ellipse;whiteSpace=wrap;html=1;" parent="1" vertex="1">
                    <mxGeometry x="370" y="340" width="11" height="10" as="geometry"/>
                </mxCell>
                <mxCell id="11" value="Alternatiiva2" style="text;html=1;strokeColor=none;fillColor=none;align=center;verticalAlign=middle;whiteSpace=wrap;rounded=0;" parent="1" vertex="1">
                    <mxGeometry x="381" y="337.5" width="76" height="15" as="geometry"/>
                </mxCell>
                <mxCell id="13" value="" style="ellipse;whiteSpace=wrap;html=1;" parent="1" vertex="1">
                    <mxGeometry x="460" y="340" width="11" height="10" as="geometry"/>
                </mxCell>
                <mxCell id="14" value="Alternativa3" style="text;html=1;strokeColor=none;fillColor=none;align=center;verticalAlign=middle;whiteSpace=wrap;rounded=0;" parent="1" vertex="1">
                    <mxGeometry x="471" y="337.5" width="70" height="15" as="geometry"/>
                </mxCell>
                <mxCell id="15" value="Enviar Resposta" style="rounded=1;whiteSpace=wrap;html=1;" parent="1" vertex="1">
                    <mxGeometry x="351" y="360" width="120" height="20" as="geometry"/>
                </mxCell>
                <mxCell id="16" value="Resposta:" style="text;html=1;strokeColor=none;fillColor=none;align=center;verticalAlign=middle;whiteSpace=wrap;rounded=0;" parent="1" vertex="1">
                    <mxGeometry x="373" y="400" width="76" height="20" as="geometry"/>
                </mxCell>
                <mxCell id="17" value="" style="ellipse;whiteSpace=wrap;html=1;" parent="1" vertex="1">
                    <mxGeometry x="371" y="340" width="11" height="10" as="geometry"/>
                </mxCell>
                <mxCell id="19" value="&lt;br&gt;&lt;br&gt;&lt;br&gt;&lt;br&gt;&lt;br&gt;Card" style="rounded=1;whiteSpace=wrap;html=1;fillColor=#2A0202;" parent="1" vertex="1">
                    <mxGeometry x="259" y="470" width="310" height="330" as="geometry"/>
                </mxCell>
                <mxCell id="20" value="Imagem" style="rounded=0;whiteSpace=wrap;html=1;" parent="1" vertex="1">
                    <mxGeometry x="300" y="510" width="230" height="130" as="geometry"/>
                </mxCell>
                <mxCell id="21" value="Alternatiiva2" style="text;html=1;strokeColor=none;fillColor=none;align=center;verticalAlign=middle;whiteSpace=wrap;rounded=0;" parent="1" vertex="1">
                    <mxGeometry x="381" y="697.5" width="76" height="15" as="geometry"/>
                </mxCell>
                <mxCell id="22" value="Alternativa3" style="text;html=1;strokeColor=none;fillColor=none;align=center;verticalAlign=middle;whiteSpace=wrap;rounded=0;" parent="1" vertex="1">
                    <mxGeometry x="471" y="697.5" width="70" height="15" as="geometry"/>
                </mxCell>
                <mxCell id="23" value="Enviar Resposta" style="rounded=1;whiteSpace=wrap;html=1;" parent="1" vertex="1">
                    <mxGeometry x="351" y="720" width="120" height="20" as="geometry"/>
                </mxCell>
                <mxCell id="24" value="Resposta:" style="text;html=1;strokeColor=none;fillColor=none;align=center;verticalAlign=middle;whiteSpace=wrap;rounded=0;" parent="1" vertex="1">
                    <mxGeometry x="373" y="760" width="76" height="20" as="geometry"/>
                </mxCell>
                <mxCell id="25" value="" style="ellipse;whiteSpace=wrap;html=1;" parent="1" vertex="1">
                    <mxGeometry x="371" y="700" width="11" height="10" as="geometry"/>
                </mxCell>
                <mxCell id="33" value="v" style="rounded=1;whiteSpace=wrap;html=1;fillColor=#2A0202;" parent="1" vertex="1">
                    <mxGeometry x="256" y="830" width="310" height="330" as="geometry"/>
                </mxCell>
                <mxCell id="34" value="Imagem" style="rounded=0;whiteSpace=wrap;html=1;" parent="1" vertex="1">
                    <mxGeometry x="297" y="870" width="230" height="130" as="geometry"/>
                </mxCell>
                <mxCell id="35" value="Alternatiiva2" style="text;html=1;strokeColor=none;fillColor=none;align=center;verticalAlign=middle;whiteSpace=wrap;rounded=0;" parent="1" vertex="1">
                    <mxGeometry x="378" y="1057.5" width="76" height="15" as="geometry"/>
                </mxCell>
                <mxCell id="36" value="Alternativa3" style="text;html=1;strokeColor=none;fillColor=none;align=center;verticalAlign=middle;whiteSpace=wrap;rounded=0;" parent="1" vertex="1">
                    <mxGeometry x="468" y="1057.5" width="70" height="15" as="geometry"/>
                </mxCell>
                <mxCell id="37" value="Enviar Resposta" style="rounded=1;whiteSpace=wrap;html=1;" parent="1" vertex="1">
                    <mxGeometry x="348" y="1080" width="120" height="20" as="geometry"/>
                </mxCell>
                <mxCell id="38" value="Resposta:" style="text;html=1;strokeColor=none;fillColor=none;align=center;verticalAlign=middle;whiteSpace=wrap;rounded=0;" parent="1" vertex="1">
                    <mxGeometry x="370" y="1120" width="76" height="20" as="geometry"/>
                </mxCell>
                <mxCell id="39" value="" style="ellipse;whiteSpace=wrap;html=1;" parent="1" vertex="1">
                    <mxGeometry x="368" y="1060" width="11" height="10" as="geometry"/>
                </mxCell>
                <mxCell id="40" value="&lt;br&gt;&lt;br&gt;&lt;br&gt;&lt;br&gt;&lt;br&gt;Card" style="rounded=1;whiteSpace=wrap;html=1;fillColor=#2A0202;" parent="1" vertex="1">
                    <mxGeometry x="256" y="1220" width="310" height="330" as="geometry"/>
                </mxCell>
                <mxCell id="41" value="Imagem" style="rounded=0;whiteSpace=wrap;html=1;" parent="1" vertex="1">
                    <mxGeometry x="297" y="1260" width="230" height="130" as="geometry"/>
                </mxCell>
                <mxCell id="42" value="Alternatiiva2" style="text;html=1;strokeColor=none;fillColor=none;align=center;verticalAlign=middle;whiteSpace=wrap;rounded=0;" parent="1" vertex="1">
                    <mxGeometry x="378" y="1447.5" width="76" height="15" as="geometry"/>
                </mxCell>
                <mxCell id="43" value="Alternativa3" style="text;html=1;strokeColor=none;fillColor=none;align=center;verticalAlign=middle;whiteSpace=wrap;rounded=0;" parent="1" vertex="1">
                    <mxGeometry x="468" y="1447.5" width="70" height="15" as="geometry"/>
                </mxCell>
                <mxCell id="44" value="Enviar Resposta" style="rounded=1;whiteSpace=wrap;html=1;" parent="1" vertex="1">
                    <mxGeometry x="348" y="1470" width="120" height="20" as="geometry"/>
                </mxCell>
                <mxCell id="45" value="Resposta:" style="text;html=1;strokeColor=none;fillColor=none;align=center;verticalAlign=middle;whiteSpace=wrap;rounded=0;" parent="1" vertex="1">
                    <mxGeometry x="370" y="1510" width="76" height="20" as="geometry"/>
                </mxCell>
                <mxCell id="46" value="" style="ellipse;whiteSpace=wrap;html=1;" parent="1" vertex="1">
                    <mxGeometry x="368" y="1450" width="11" height="10" as="geometry"/>
                </mxCell>
                <mxCell id="47" value="&lt;br&gt;&lt;br&gt;&lt;br&gt;&lt;br&gt;&lt;br&gt;Card" style="rounded=1;whiteSpace=wrap;html=1;fillColor=#2A0202;" parent="1" vertex="1">
                    <mxGeometry x="264" y="1589" width="310" height="330" as="geometry"/>
                </mxCell>
                <mxCell id="48" value="Imagem" style="rounded=0;whiteSpace=wrap;html=1;" parent="1" vertex="1">
                    <mxGeometry x="305" y="1629" width="230" height="130" as="geometry"/>
                </mxCell>
                <mxCell id="49" value="Alternatiiva2" style="text;html=1;strokeColor=none;fillColor=none;align=center;verticalAlign=middle;whiteSpace=wrap;rounded=0;" parent="1" vertex="1">
                    <mxGeometry x="386" y="1816.5" width="76" height="15" as="geometry"/>
                </mxCell>
                <mxCell id="50" value="Alternativa3" style="text;html=1;strokeColor=none;fillColor=none;align=center;verticalAlign=middle;whiteSpace=wrap;rounded=0;" parent="1" vertex="1">
                    <mxGeometry x="476" y="1816.5" width="70" height="15" as="geometry"/>
                </mxCell>
                <mxCell id="51" value="Enviar Resposta" style="rounded=1;whiteSpace=wrap;html=1;" parent="1" vertex="1">
                    <mxGeometry x="356" y="1839" width="120" height="20" as="geometry"/>
                </mxCell>
                <mxCell id="52" value="Resposta:" style="text;html=1;strokeColor=none;fillColor=none;align=center;verticalAlign=middle;whiteSpace=wrap;rounded=0;" parent="1" vertex="1">
                    <mxGeometry x="378" y="1879" width="76" height="20" as="geometry"/>
                </mxCell>
                <mxCell id="53" value="" style="ellipse;whiteSpace=wrap;html=1;" parent="1" vertex="1">
                    <mxGeometry x="376" y="1819" width="11" height="10" as="geometry"/>
                </mxCell>
                <mxCell id="54" value="&lt;br&gt;&lt;br&gt;&lt;br&gt;&lt;br&gt;&lt;br&gt;Card" style="rounded=1;whiteSpace=wrap;html=1;fillColor=#2A0202;" parent="1" vertex="1">
                    <mxGeometry x="268.5" y="1950" width="310" height="330" as="geometry"/>
                </mxCell>
                <mxCell id="55" value="Imagem" style="rounded=0;whiteSpace=wrap;html=1;" parent="1" vertex="1">
                    <mxGeometry x="309.5" y="1990" width="230" height="130" as="geometry"/>
                </mxCell>
                <mxCell id="56" value="Alternatiiva2" style="text;html=1;strokeColor=none;fillColor=none;align=center;verticalAlign=middle;whiteSpace=wrap;rounded=0;" parent="1" vertex="1">
                    <mxGeometry x="390.5" y="2177.5" width="76" height="15" as="geometry"/>
                </mxCell>
                <mxCell id="57" value="Alternativa3" style="text;html=1;strokeColor=none;fillColor=none;align=center;verticalAlign=middle;whiteSpace=wrap;rounded=0;" parent="1" vertex="1">
                    <mxGeometry x="480.5" y="2177.5" width="70" height="15" as="geometry"/>
                </mxCell>
                <mxCell id="58" value="Enviar Resposta" style="rounded=1;whiteSpace=wrap;html=1;" parent="1" vertex="1">
                    <mxGeometry x="360.5" y="2200" width="120" height="20" as="geometry"/>
                </mxCell>
                <mxCell id="59" value="Resposta:" style="text;html=1;strokeColor=none;fillColor=none;align=center;verticalAlign=middle;whiteSpace=wrap;rounded=0;" parent="1" vertex="1">
                    <mxGeometry x="382.5" y="2240" width="76" height="20" as="geometry"/>
                </mxCell>
                <mxCell id="60" value="" style="ellipse;whiteSpace=wrap;html=1;" parent="1" vertex="1">
                    <mxGeometry x="380.5" y="2180" width="11" height="10" as="geometry"/>
                </mxCell>
                <mxCell id="61" value="&lt;br&gt;&lt;br&gt;&lt;br&gt;&lt;br&gt;&lt;br&gt;Card" style="rounded=1;whiteSpace=wrap;html=1;fillColor=#2A0202;" parent="1" vertex="1">
                    <mxGeometry x="268.5" y="2350" width="310" height="330" as="geometry"/>
                </mxCell>
                <mxCell id="62" value="Imagem" style="rounded=0;whiteSpace=wrap;html=1;" parent="1" vertex="1">
                    <mxGeometry x="309.5" y="2390" width="230" height="130" as="geometry"/>
                </mxCell>
                <mxCell id="63" value="Alternatiiva2" style="text;html=1;strokeColor=none;fillColor=none;align=center;verticalAlign=middle;whiteSpace=wrap;rounded=0;" parent="1" vertex="1">
                    <mxGeometry x="390.5" y="2577.5" width="76" height="15" as="geometry"/>
                </mxCell>
                <mxCell id="64" value="Alternativa3" style="text;html=1;strokeColor=none;fillColor=none;align=center;verticalAlign=middle;whiteSpace=wrap;rounded=0;" parent="1" vertex="1">
                    <mxGeometry x="480.5" y="2577.5" width="70" height="15" as="geometry"/>
                </mxCell>
                <mxCell id="65" value="Enviar Resposta" style="rounded=1;whiteSpace=wrap;html=1;" parent="1" vertex="1">
                    <mxGeometry x="360.5" y="2600" width="120" height="20" as="geometry"/>
                </mxCell>
                <mxCell id="66" value="Resposta:" style="text;html=1;strokeColor=none;fillColor=none;align=center;verticalAlign=middle;whiteSpace=wrap;rounded=0;" parent="1" vertex="1">
                    <mxGeometry x="382.5" y="2640" width="76" height="20" as="geometry"/>
                </mxCell>
                <mxCell id="67" value="" style="ellipse;whiteSpace=wrap;html=1;" parent="1" vertex="1">
                    <mxGeometry x="380.5" y="2580" width="11" height="10" as="geometry"/>
                </mxCell>
                <mxCell id="89" value="&lt;br&gt;&lt;br&gt;&lt;br&gt;&lt;br&gt;&lt;br&gt;Card" style="rounded=1;whiteSpace=wrap;html=1;fillColor=#2A0202;" parent="1" vertex="1">
                    <mxGeometry x="273.5" y="2720" width="310" height="330" as="geometry"/>
                </mxCell>
                <mxCell id="90" value="Imagem" style="rounded=0;whiteSpace=wrap;html=1;" parent="1" vertex="1">
                    <mxGeometry x="314.5" y="2760" width="230" height="130" as="geometry"/>
                </mxCell>
                <mxCell id="91" value="Alternatiiva2" style="text;html=1;strokeColor=none;fillColor=none;align=center;verticalAlign=middle;whiteSpace=wrap;rounded=0;" parent="1" vertex="1">
                    <mxGeometry x="395.5" y="2947.5" width="76" height="15" as="geometry"/>
                </mxCell>
                <mxCell id="92" value="Alternativa3" style="text;html=1;strokeColor=none;fillColor=none;align=center;verticalAlign=middle;whiteSpace=wrap;rounded=0;" parent="1" vertex="1">
                    <mxGeometry x="485.5" y="2947.5" width="70" height="15" as="geometry"/>
                </mxCell>
                <mxCell id="93" value="Enviar Resposta" style="rounded=1;whiteSpace=wrap;html=1;" parent="1" vertex="1">
                    <mxGeometry x="365.5" y="2970" width="120" height="20" as="geometry"/>
                </mxCell>
                <mxCell id="94" value="Resposta:" style="text;html=1;strokeColor=none;fillColor=none;align=center;verticalAlign=middle;whiteSpace=wrap;rounded=0;" parent="1" vertex="1">
                    <mxGeometry x="387.5" y="3010" width="76" height="20" as="geometry"/>
                </mxCell>
                <mxCell id="95" value="" style="ellipse;whiteSpace=wrap;html=1;" parent="1" vertex="1">
                    <mxGeometry x="385.5" y="2950" width="11" height="10" as="geometry"/>
                </mxCell>
                <mxCell id="118" value="" style="ellipse;whiteSpace=wrap;html=1;" parent="1" vertex="1">
                    <mxGeometry x="280.5" y="2180" width="11" height="10" as="geometry"/>
                </mxCell>
                <mxCell id="119" value="Alternativa 1" style="text;html=1;strokeColor=none;fillColor=none;align=center;verticalAlign=middle;whiteSpace=wrap;rounded=0;" parent="1" vertex="1">
                    <mxGeometry x="291.5" y="2175" width="69" height="20" as="geometry"/>
                </mxCell>
                <mxCell id="166" value="&lt;br&gt;&lt;br&gt;&lt;br&gt;&lt;br&gt;&lt;br&gt;Card" style="rounded=1;whiteSpace=wrap;html=1;fillColor=#2A0202;" parent="1" vertex="1">
                    <mxGeometry x="264" y="3120" width="310" height="330" as="geometry"/>
                </mxCell>
                <mxCell id="167" value="Imagem" style="rounded=0;whiteSpace=wrap;html=1;" parent="1" vertex="1">
                    <mxGeometry x="305" y="3160" width="230" height="130" as="geometry"/>
                </mxCell>
                <mxCell id="168" value="" style="ellipse;whiteSpace=wrap;html=1;" parent="1" vertex="1">
                    <mxGeometry x="285" y="3350" width="11" height="10" as="geometry"/>
                </mxCell>
                <mxCell id="169" value="Alternativa 1" style="text;html=1;strokeColor=none;fillColor=none;align=center;verticalAlign=middle;whiteSpace=wrap;rounded=0;" parent="1" vertex="1">
                    <mxGeometry x="296" y="3345" width="69" height="20" as="geometry"/>
                </mxCell>
                <mxCell id="170" value="Alternatiiva2" style="text;html=1;strokeColor=none;fillColor=none;align=center;verticalAlign=middle;whiteSpace=wrap;rounded=0;" parent="1" vertex="1">
                    <mxGeometry x="386" y="3347.5" width="76" height="15" as="geometry"/>
                </mxCell>
                <mxCell id="171" value="" style="ellipse;whiteSpace=wrap;html=1;" parent="1" vertex="1">
                    <mxGeometry x="465" y="3350" width="11" height="10" as="geometry"/>
                </mxCell>
                <mxCell id="172" value="Alternativa3" style="text;html=1;strokeColor=none;fillColor=none;align=center;verticalAlign=middle;whiteSpace=wrap;rounded=0;" parent="1" vertex="1">
                    <mxGeometry x="476" y="3347.5" width="70" height="15" as="geometry"/>
                </mxCell>
                <mxCell id="173" value="Enviar Resposta" style="rounded=1;whiteSpace=wrap;html=1;" parent="1" vertex="1">
                    <mxGeometry x="356" y="3370" width="120" height="20" as="geometry"/>
                </mxCell>
                <mxCell id="174" value="Resposta:" style="text;html=1;strokeColor=none;fillColor=none;align=center;verticalAlign=middle;whiteSpace=wrap;rounded=0;" parent="1" vertex="1">
                    <mxGeometry x="378" y="3410" width="76" height="20" as="geometry"/>
                </mxCell>
                <mxCell id="175" value="" style="ellipse;whiteSpace=wrap;html=1;" parent="1" vertex="1">
                    <mxGeometry x="376" y="3350" width="11" height="10" as="geometry"/>
                </mxCell>
                <mxCell id="176" value="&lt;br&gt;&lt;br&gt;&lt;br&gt;&lt;br&gt;&lt;br&gt;Card" style="rounded=1;whiteSpace=wrap;html=1;fillColor=#2A0202;" parent="1" vertex="1">
                    <mxGeometry x="270.5" y="3530" width="310" height="330" as="geometry"/>
                </mxCell>
                <mxCell id="177" value="Imagem" style="rounded=0;whiteSpace=wrap;html=1;" parent="1" vertex="1">
                    <mxGeometry x="311.5" y="3570" width="230" height="130" as="geometry"/>
                </mxCell>
                <mxCell id="178" value="" style="ellipse;whiteSpace=wrap;html=1;" parent="1" vertex="1">
                    <mxGeometry x="291.5" y="3760" width="11" height="10" as="geometry"/>
                </mxCell>
                <mxCell id="179" value="Alternativa 1" style="text;html=1;strokeColor=none;fillColor=none;align=center;verticalAlign=middle;whiteSpace=wrap;rounded=0;" parent="1" vertex="1">
                    <mxGeometry x="302.5" y="3755" width="69" height="20" as="geometry"/>
                </mxCell>
                <mxCell id="180" value="Alternatiiva2" style="text;html=1;strokeColor=none;fillColor=none;align=center;verticalAlign=middle;whiteSpace=wrap;rounded=0;" parent="1" vertex="1">
                    <mxGeometry x="392.5" y="3757.5" width="76" height="15" as="geometry"/>
                </mxCell>
                <mxCell id="181" value="" style="ellipse;whiteSpace=wrap;html=1;" parent="1" vertex="1">
                    <mxGeometry x="471.5" y="3760" width="11" height="10" as="geometry"/>
                </mxCell>
                <mxCell id="182" value="Alternativa3" style="text;html=1;strokeColor=none;fillColor=none;align=center;verticalAlign=middle;whiteSpace=wrap;rounded=0;" parent="1" vertex="1">
                    <mxGeometry x="482.5" y="3757.5" width="70" height="15" as="geometry"/>
                </mxCell>
                <mxCell id="183" value="Enviar Resposta" style="rounded=1;whiteSpace=wrap;html=1;" parent="1" vertex="1">
                    <mxGeometry x="362.5" y="3780" width="120" height="20" as="geometry"/>
                </mxCell>
                <mxCell id="184" value="Resposta:" style="text;html=1;strokeColor=none;fillColor=none;align=center;verticalAlign=middle;whiteSpace=wrap;rounded=0;" parent="1" vertex="1">
                    <mxGeometry x="384.5" y="3820" width="76" height="20" as="geometry"/>
                </mxCell>
                <mxCell id="185" value="" style="ellipse;whiteSpace=wrap;html=1;" parent="1" vertex="1">
                    <mxGeometry x="382.5" y="3760" width="11" height="10" as="geometry"/>
                </mxCell>
                <mxCell id="186" value="&lt;br&gt;&lt;br&gt;&lt;br&gt;&lt;br&gt;&lt;br&gt;Card" style="rounded=1;whiteSpace=wrap;html=1;fillColor=#2A0202;" parent="1" vertex="1">
                    <mxGeometry x="261" y="3927" width="310" height="330" as="geometry"/>
                </mxCell>
                <mxCell id="187" value="Imagem" style="rounded=0;whiteSpace=wrap;html=1;" parent="1" vertex="1">
                    <mxGeometry x="302" y="3967" width="230" height="130" as="geometry"/>
                </mxCell>
                <mxCell id="188" value="" style="ellipse;whiteSpace=wrap;html=1;" parent="1" vertex="1">
                    <mxGeometry x="282" y="4157" width="11" height="10" as="geometry"/>
                </mxCell>
                <mxCell id="189" value="Alternativa 1" style="text;html=1;strokeColor=none;fillColor=none;align=center;verticalAlign=middle;whiteSpace=wrap;rounded=0;" parent="1" vertex="1">
                    <mxGeometry x="293" y="4152" width="69" height="20" as="geometry"/>
                </mxCell>
                <mxCell id="190" value="Alternatiiva2" style="text;html=1;strokeColor=none;fillColor=none;align=center;verticalAlign=middle;whiteSpace=wrap;rounded=0;" parent="1" vertex="1">
                    <mxGeometry x="383" y="4154.5" width="76" height="15" as="geometry"/>
                </mxCell>
                <mxCell id="191" value="" style="ellipse;whiteSpace=wrap;html=1;" parent="1" vertex="1">
                    <mxGeometry x="462" y="4157" width="11" height="10" as="geometry"/>
                </mxCell>
                <mxCell id="192" value="Alternativa3" style="text;html=1;strokeColor=none;fillColor=none;align=center;verticalAlign=middle;whiteSpace=wrap;rounded=0;" parent="1" vertex="1">
                    <mxGeometry x="473" y="4154.5" width="70" height="15" as="geometry"/>
                </mxCell>
                <mxCell id="193" value="Enviar Resposta" style="rounded=1;whiteSpace=wrap;html=1;" parent="1" vertex="1">
                    <mxGeometry x="353" y="4177" width="120" height="20" as="geometry"/>
                </mxCell>
                <mxCell id="194" value="Resposta:" style="text;html=1;strokeColor=none;fillColor=none;align=center;verticalAlign=middle;whiteSpace=wrap;rounded=0;" parent="1" vertex="1">
                    <mxGeometry x="375" y="4217" width="76" height="20" as="geometry"/>
                </mxCell>
                <mxCell id="195" value="" style="ellipse;whiteSpace=wrap;html=1;" parent="1" vertex="1">
                    <mxGeometry x="373" y="4159.5" width="11" height="10" as="geometry"/>
                </mxCell>
                <mxCell id="196" value="" style="ellipse;whiteSpace=wrap;html=1;" parent="1" vertex="1">
                    <mxGeometry x="268.5" y="1819" width="11" height="10" as="geometry"/>
                </mxCell>
                <mxCell id="197" value="Alternativa 1" style="text;html=1;strokeColor=none;fillColor=none;align=center;verticalAlign=middle;whiteSpace=wrap;rounded=0;" parent="1" vertex="1">
                    <mxGeometry x="279.5" y="1814" width="69" height="20" as="geometry"/>
                </mxCell>
                <mxCell id="198" value="" style="ellipse;whiteSpace=wrap;html=1;" parent="1" vertex="1">
                    <mxGeometry x="274" y="1450" width="11" height="10" as="geometry"/>
                </mxCell>
                <mxCell id="199" value="Alternativa 1" style="text;html=1;strokeColor=none;fillColor=none;align=center;verticalAlign=middle;whiteSpace=wrap;rounded=0;" parent="1" vertex="1">
                    <mxGeometry x="285" y="1445" width="69" height="20" as="geometry"/>
                </mxCell>
                <mxCell id="200" value="" style="ellipse;whiteSpace=wrap;html=1;" parent="1" vertex="1">
                    <mxGeometry x="261" y="1060" width="11" height="10" as="geometry"/>
                </mxCell>
                <mxCell id="201" value="Alternativa 1" style="text;html=1;strokeColor=none;fillColor=none;align=center;verticalAlign=middle;whiteSpace=wrap;rounded=0;" parent="1" vertex="1">
                    <mxGeometry x="272" y="1055" width="69" height="20" as="geometry"/>
                </mxCell>
                <mxCell id="202" value="" style="ellipse;whiteSpace=wrap;html=1;" parent="1" vertex="1">
                    <mxGeometry x="270.5" y="700" width="11" height="10" as="geometry"/>
                </mxCell>
                <mxCell id="203" value="Alternativa 1" style="text;html=1;strokeColor=none;fillColor=none;align=center;verticalAlign=middle;whiteSpace=wrap;rounded=0;" parent="1" vertex="1">
                    <mxGeometry x="281.5" y="695" width="69" height="20" as="geometry"/>
                </mxCell>
                <mxCell id="204" value="" style="ellipse;whiteSpace=wrap;html=1;" parent="1" vertex="1">
                    <mxGeometry x="286" y="2577.5" width="11" height="10" as="geometry"/>
                </mxCell>
                <mxCell id="205" value="Alternativa 1" style="text;html=1;strokeColor=none;fillColor=none;align=center;verticalAlign=middle;whiteSpace=wrap;rounded=0;" parent="1" vertex="1">
                    <mxGeometry x="297" y="2572.5" width="69" height="20" as="geometry"/>
                </mxCell>
                <mxCell id="206" value="" style="ellipse;whiteSpace=wrap;html=1;" parent="1" vertex="1">
                    <mxGeometry x="287.5" y="2950" width="11" height="10" as="geometry"/>
                </mxCell>
                <mxCell id="207" value="Alternativa 1" style="text;html=1;strokeColor=none;fillColor=none;align=center;verticalAlign=middle;whiteSpace=wrap;rounded=0;" parent="1" vertex="1">
                    <mxGeometry x="298.5" y="2945" width="69" height="20" as="geometry"/>
                </mxCell>
                <mxCell id="210" value="&lt;font style=&quot;font-size: 36px&quot;&gt;Pontuaçao&lt;/font&gt;" style="text;html=1;strokeColor=#FF0000;fillColor=none;align=center;verticalAlign=middle;whiteSpace=wrap;rounded=0;" parent="1" vertex="1">
                    <mxGeometry x="230" y="4340" width="360" height="140" as="geometry"/>
                </mxCell>
                <mxCell id="211" value="" style="ellipse;whiteSpace=wrap;html=1;" vertex="1" parent="1">
                    <mxGeometry x="473" y="2180" width="11" height="10" as="geometry"/>
                </mxCell>
                <mxCell id="212" value="" style="ellipse;whiteSpace=wrap;html=1;" vertex="1" parent="1">
                    <mxGeometry x="469.5" y="2580" width="11" height="10" as="geometry"/>
                </mxCell>
                <mxCell id="213" value="" style="ellipse;whiteSpace=wrap;html=1;" vertex="1" parent="1">
                    <mxGeometry x="476" y="2950" width="11" height="10" as="geometry"/>
                </mxCell>
                <mxCell id="214" value="" style="ellipse;whiteSpace=wrap;html=1;" vertex="1" parent="1">
                    <mxGeometry x="466.5" y="1819" width="11" height="10" as="geometry"/>
                </mxCell>
                <mxCell id="215" value="" style="ellipse;whiteSpace=wrap;html=1;" vertex="1" parent="1">
                    <mxGeometry x="457" y="1450" width="11" height="10" as="geometry"/>
                </mxCell>
                <mxCell id="216" value="" style="ellipse;whiteSpace=wrap;html=1;" vertex="1" parent="1">
                    <mxGeometry x="454" y="1060" width="11" height="10" as="geometry"/>
                </mxCell>
                <mxCell id="217" value="" style="ellipse;whiteSpace=wrap;html=1;" vertex="1" parent="1">
                    <mxGeometry x="455.5" y="697.5" width="11" height="10" as="geometry"/>
                </mxCell>
            </root>
        </mxGraphModel>
    </diagram>
</mxfile>